{
  "accessors": [
    {
      "bufferView": 2,
      "componentType": 5126,
      "count": 2510,
      "max": [
        331.1338806152344,
        345.5164794921875,
        1414.4591064453125
      ],
      "min": [
        -331.13409423828125,
        -217.04981994628906,
        10.760000228881836
      ],
      "type": "VEC3"
    },
    {
      "bufferView": 2,
      "byteOffset": 30120,
      "componentType": 5126,
      "count": 2510,
      "max": [
        0.9998338222503662,
        0.9998136162757874,
        0.9999569058418274
      ],
      "min": [
        -0.9997960329055786,
        -0.9999460577964783,
        -1.0
      ],
      "type": "VEC3"
    },
    {
      "bufferView": 1,
      "componentType": 5126,
      "count": 2510,
      "max": [
        0.9960436820983887,
        0.9957029819488525
      ],
      "min": [
        0.004116159863770008,
        0.004238783847540617
      ],
      "type": "VEC2"
    },
    {
      "bufferView": 0,
      "componentType": 5125,
      "count": 9252,
      "type": "SCALAR"
    }
  ],
  "asset": {
    "extras": {
      "author": "Elite 3D (https://sketchfab.com/Elite3DModelling)",
      "license": "CC-BY-SA-4.0 (http://creativecommons.org/licenses/by-sa/4.0/)",
      "source": "https://sketchfab.com/3d-models/jack-sparrow-pirates-of-caribbean-53b7afe2e33d413db3f94fcba4da9943",
      "title": "Jack Sparrow Pirates of Caribbean"
    },
    "generator": "Sketchfab-14.38.0",
    "version": "2.0"
  },
  "bufferViews": [
    {
      "buffer": 0,
      "byteLength": 37008,
      "name": "floatBufferViews",
      "target": 34963
    },
    {
      "buffer": 0,
      "byteLength": 20080,
      "byteOffset": 37008,
      "byteStride": 8,
      "name": "floatBufferViews",
      "target": 34962
    },
    {
      "buffer": 0,
      "byteLength": 60240,
      "byteOffset": 57088,
      "byteStride": 12,
      "name": "floatBufferViews",
      "target": 34962
    }
  ],
  "buffers": [
    {
      "byteLength": 117328,
      "uri": "scene.bin"
    }
  ],
  "images": [
    {
      "uri": "textures/jack_sparrow_mat_baseColor.png"
    }
  ],
  "materials": [
    {
      "doubleSided": true,
      "name": "jack_sparrow_mat",
      "pbrMetallicRoughness": {
        "baseColorTexture": {
          "index": 0
        },
        "metallicFactor": 0.0,
        "roughnessFactor": 0.8211145618000169
      }
    }
  ],
  "meshes": [
    {
      "name": "jack_sparrow_lod0_jack_sparrow_mat_0",
      "primitives": [
        {
          "attributes": {
            "NORMAL": 1,
            "POSITION": 0,
            "TEXCOORD_0": 2
          },
          "indices": 3,
          "material": 0,
          "mode": 4
        }
      ]
    }
  ],
  "nodes": [
    {
      "children": [
        1
      ],
      "matrix": [
        1.0,
        0.0,
        0.0,
        0.0,
        0.0,
        2.220446049250313e-16,
        -1.0,
        0.0,
        0.0,
        1.0,
        2.220446049250313e-16,
        0.0,
        0.0,
        0.0,
        0.0,
        1.0
      ],
      "name": "Sketchfab_model"
    },
    {
      "children": [
        2
      ],
      "matrix": [
        0.009999999776482582,
        0.0,
        0.0,
        0.0,
        0.0,
        0.0,
        0.009999999776482582,
        0.0,
        0.0,
        -0.009999999776482582,
        0.0,
        0.0,
        0.0,
        0.0,
        0.0,
        1.0
      ],
      "name": "JackSparrow.fbx"
    },
    {
      "children": [
        3
      ],
      "name": "RootNode"
    },
    {
      "children": [
        4
      ],
      "matrix": [
        1.0000001192092896,
        0.0,
        0.0,
        0.0,
        0.0,
        -1.6292069881348986e-07,
        -1.0000001192092762,
        0.0,
        0.0,
        1.0000001192092762,
        -1.6292069881348986e-07,
        0.0,
        0.0,
        0.0,
        0.0,
        1.0
      ],
      "name": "jack_sparrow_lod0"
    },
    {
      "mesh": 0,
      "name": "jack_sparrow_lod0_jack_sparrow_mat_0"
    }
  ],
  "samplers": [
    {
      "magFilter": 9729,
      "minFilter": 9987,
      "wrapS": 10497,
      "wrapT": 10497
    }
  ],
  "scene": 0,
  "scenes": [
    {
      "name": "Sketchfab_Scene",
      "nodes": [
        0
      ]
    }
  ],
  "textures": [
    {
      "sampler": 0,
      "source": 0
    }
  ]
}
